<?xml version="1.0" standalone="no"?>
<!DOCTYPE svg PUBLIC "-//W3C//DTD SVG 20010904//EN"
 "http://www.w3.org/TR/2001/REC-SVG-20010904/DTD/svg10.dtd">
<svg version="1.0" xmlns="http://www.w3.org/2000/svg"
 width="994.000000pt" height="994.000000pt" viewBox="0 0 994.000000 994.000000"
 preserveAspectRatio="xMidYMid meet">
<metadata>
Created by potrace 1.11, written by Peter Selinger 2001-2013
</metadata>
<g transform="translate(0.000000,994.000000) scale(0.100000,-0.100000)"
fill="#000000" stroke="none">
<path d="M6690 7665 c-30 -7 -82 -20 -115 -28 -33 -9 -76 -18 -95 -21 -55 -9
-70 -13 -155 -40 -44 -14 -83 -26 -87 -26 -17 -1 -177 -74 -228 -103 -141 -80
-229 -151 -335 -272 -77 -87 -175 -286 -189 -380 -3 -22 -8 -52 -11 -67 -3
-16 -7 -40 -10 -55 -9 -48 -7 -155 4 -238 6 -44 13 -101 15 -126 8 -74 46
-226 76 -304 5 -11 18 -47 31 -80 44 -116 101 -241 157 -340 67 -121 203 -339
214 -343 4 -2 8 -8 8 -13 0 -8 175 -266 189 -279 3 -3 26 -34 50 -70 25 -36
48 -67 51 -70 10 -9 163 -226 218 -310 19 -30 39 -56 44 -58 4 -2 8 -8 8 -13
0 -5 17 -37 38 -71 107 -177 191 -379 227 -548 34 -161 2 -351 -87 -521 -51
-98 -113 -147 -191 -153 -92 -7 -172 31 -545 262 -46 29 -85 52 -87 52 -2 0
-28 14 -57 31 -150 89 -512 259 -658 309 -36 12 -74 26 -85 31 -110 49 -605
186 -772 214 -15 3 -53 9 -83 14 -30 5 -84 16 -120 24 -120 28 -159 33 -385
44 -345 18 -809 2 -945 -32 -30 -8 -95 -21 -145 -30 -49 -10 -97 -18 -105 -20
-204 -39 -636 -181 -860 -283 -171 -77 -206 -93 -220 -101 -8 -4 -60 -32 -115
-61 -55 -29 -112 -61 -127 -71 -14 -11 -29 -19 -33 -19 -12 0 -240 -142 -243
-151 -2 -5 -8 -9 -13 -9 -5 0 -39 -21 -77 -47 -37 -26 -80 -56 -97 -67 -16
-12 -32 -23 -35 -26 -3 -3 -23 -18 -45 -35 -22 -16 -44 -33 -50 -37 -5 -5 -28
-22 -50 -39 -151 -116 -297 -253 -430 -403 -151 -171 -155 -203 -60 -408 104
-223 268 -544 284 -558 10 -8 42 -64 48 -82 3 -10 9 -18 14 -18 5 0 9 -5 9
-10 0 -16 217 -342 310 -465 74 -98 196 -249 232 -286 7 -8 38 -43 68 -79 84
-100 285 -296 474 -464 79 -70 251 -194 378 -274 l68 -42 3046 0 3047 0 66 54
c139 113 236 222 343 386 58 87 178 309 188 345 1 6 7 21 12 35 83 213 138
421 163 620 3 25 7 59 10 75 21 152 24 205 23 352 0 92 -4 195 -9 228 -5 33
-11 80 -14 105 -4 25 -8 52 -10 60 -2 8 -7 42 -10 75 -11 106 -18 149 -41 233
-9 32 -19 71 -24 87 -43 162 -169 442 -325 720 -12 22 -48 90 -80 150 -32 61
-75 142 -96 180 -167 306 -245 462 -290 581 -33 89 -64 192 -75 249 -54 300
-38 457 54 501 33 16 48 16 167 5 249 -23 945 -13 1037 15 10 3 30 8 45 10
164 30 252 58 388 125 160 77 282 191 335 312 30 67 37 187 15 263 -19 69 -79
163 -115 181 -41 21 -105 15 -198 -18 -48 -17 -94 -32 -102 -34 -8 -2 -54 -15
-101 -28 -47 -14 -115 -28 -150 -31 -455 -39 -599 -22 -689 80 -54 62 -84 152
-105 309 -3 28 -8 64 -10 80 -2 17 -7 60 -10 97 -7 81 -23 174 -42 246 -2 6
-4 19 -6 27 -2 8 -6 18 -10 21 -4 4 -7 14 -7 22 0 32 -81 195 -146 292 -203
305 -557 525 -979 610 -55 11 -117 24 -139 31 -21 6 -48 13 -60 16 -48 12
-312 11 -366 -2z"/>
</g>
</svg>
